# xmcd
#
# Track frame offsets: 
#        150
#        19737
#        34965
#        51097
#        70035
#        89325
#        106247
#        115470
#        134300
#        150032
#        167550
#        185695
#        200497
#        217357
#        232932
#        254152
#
# Disc length: 3573 seconds
#
# Revision: 0
# Processed by: cddbd v1.5.2PL0 Copyright (c) Steve Scherf et al.
# Submitted via: ExactAudioCopyFreeDBPlugin 1.0
#
DISCID=e10df310
DTITLE=Ney Matogrosso - Maxximum
DYEAR=2005
DGENRE=Avantgarde
TTITLE0=América Do Sul (Ao Vivo)
TTITLE1=Felicidade Zen
TTITLE2=Bandolero (Ao Vivo)
TTITLE3=Metamorfose Ambulante (Ao Vivo)
TTITLE4=Dama do Cassino
TTITLE5=Rumba Azul (Ao Vivo)
TTITLE6=Alma Llanera
TTITLE7=Bésame Mucho (Ao Vivo)
TTITLE8=Vagamente Manhã De Carnaval
TTITLE9=Vagamente
TTITLE10=Manhã De Carnaval
TTITLE11=Da Cor Do Pecado (Ao Vivo)
TTITLE12=Andar Com Fé (Ao Vivo)
TTITLE13=O Mundo é um Moinho (Ao Vivo)
TTITLE14=Número Um
TTITLE15=Feitiço da Vila
EXTD=
EXTT0=
EXTT1=
EXTT2=
EXTT3=
EXTT4=
EXTT5=
EXTT6=
EXTT7=
EXTT8=
EXTT9=
EXTT10=
EXTT11=
EXTT12=
EXTT13=
EXTT14=
EXTT15=
PLAYORDER=
